<svg xmlns="http://www.w3.org/2000/svg" fill="none" viewBox="0 0 547 90" height="90" width="547">
<g clip-path="url(#clip0_138_133)">
<path fill="white" d="M0 14.4514L63.0845 9.38782L62.7476 28.4348L43.8503 29.4457L45.9937 81.4109L24.354 79.4921L22.3229 29.895L2.81728 32.1507L0 14.4514Z"></path>
<path fill="white" d="M133.994 65.3402C127.816 78.7433 117.802 84.2281 100.439 84.2281C82.0661 84.2281 66.2856 75.5517 66.2856 51.544C66.2856 27.5363 80.007 13.2159 99.3161 13.2159C118.625 13.2159 125.439 18.5042 133.339 35.2206L114.31 41.7818C113.075 33.8916 107.936 30.8029 102.246 30.8029C95.5816 30.8029 88.047 36.5497 88.047 47.9405C88.047 60.0052 94.187 65.5274 101.909 65.5274C108.18 65.5274 112.551 63.1594 114.582 57.6372L134.003 65.3496L133.994 65.3402Z"></path>
<path fill="white" d="M173.595 58.6387L176.749 44.5055L210.341 48.3336C210.341 73.5393 197.499 82.1971 176.861 82.1971C156.223 82.1971 140.677 72.0511 140.677 48.0434C140.677 24.0358 156.457 11.8588 175.392 11.8588C195.684 11.8588 202.844 19.9643 209.096 32.2723L189.768 37.7946C186.605 31.6265 183.741 30.3349 176.852 30.3442C169.336 30.3442 162.644 35.3049 162.644 48.0434C162.644 59.0879 169.467 64.1609 176.852 64.1609C182.533 64.1609 187.447 63.5993 189.384 60.0988L173.585 58.6293L173.595 58.6387Z"></path>
<path fill="white" d="M274.081 33.3955C274.081 36.9054 280.165 37.3453 286.033 38.534C307.242 42.8675 314.44 49.1479 314.44 63.3747C314.44 77.6014 303.508 84.6306 284.61 84.6306C266.705 84.6306 259.274 82.2439 249.961 70.4038L263.982 59.0318C269.204 64.9565 276.655 65.284 282.533 65.284C288.41 65.284 294.597 64.6102 294.597 62.0175C294.597 59.4249 290.47 57.4406 281.859 55.5874C260.387 50.9824 252.89 46.2651 252.89 32.2536C252.89 18.2421 265.61 11.5125 284.339 11.5125C302.057 11.5125 309.245 16.9224 314.777 26.956L298.126 36.5497C296.207 30.6905 290.76 28.4161 284.564 28.4161C278.367 28.4161 274.081 30.6718 274.081 33.3768"></path>
<path fill="white" d="M321.188 14.4514L383.253 9.38782L382.916 28.4348L364.533 29.4457L366.676 81.4109L345.037 79.4921L343.006 29.895L324.006 32.1507L321.188 14.4514Z"></path>
<path fill="white" d="M503.403 79.3611L481.773 77.1054L485.723 13.2159C485.723 13.2159 501.606 10.6233 515.356 10.6233C536.771 10.6233 546.355 21.5554 546.355 39.03C546.355 50.6735 541.769 57.2721 533.233 60.2298H533.28L545.457 85.473L522.46 83.7789L513.437 61.8022H513.512C508.561 61.3343 503.637 60.5668 503.637 60.5668L503.413 79.3704L503.403 79.3611ZM503.965 44.6927C503.965 44.6927 511.499 46.0686 517.153 46.0686C521.982 46.0686 525.717 44.4774 525.717 39.9567C525.717 34.5467 522.787 30.9807 515.683 30.9807C511.284 30.9807 504.414 31.4767 504.414 31.4767L503.965 44.6833V44.6927Z"></path>
<path fill="#FFE000" d="M416.114 27.3865L435.938 26.1978C435.938 26.1978 435.966 26.1978 435.976 26.1978C436.041 26.1698 436.079 26.1042 436.06 26.0481L427.28 0.0655047C427.28 0.0655047 427.243 0.00934639 427.206 -1.3332e-05C427.14 -0.0187328 427.065 0.0187061 427.037 0.0748644L415.993 27.2461C415.993 27.2461 415.993 27.2742 415.993 27.2836C415.993 27.3491 416.049 27.3959 416.114 27.3865Z"></path>
<path fill="#FFE000" d="M476.054 31.926L374.707 39.4325C374.286 39.4138 374.239 39.5168 374.576 39.7227L403.535 57.6559C403.591 57.6934 403.619 57.7589 403.591 57.8338L392.444 86.4464C392.331 86.7085 392.35 86.6991 392.622 86.5119L471.168 35.1177L476.101 32.1413C476.363 31.9822 476.344 31.9167 476.045 31.926"></path>
<path fill="#FFE000" d="M447.488 61.1565C447.488 61.1565 447.376 61.1097 447.32 61.1378L429.602 73.2773C429.602 73.2773 429.583 73.296 429.574 73.3054C429.536 73.3522 429.546 73.4177 429.602 73.4552L456.314 89.4509C456.314 89.4509 456.389 89.4696 456.427 89.4603C456.492 89.4322 456.52 89.376 456.502 89.3199L447.507 61.1752C447.507 61.1752 447.507 61.1565 447.488 61.1471"></path>
</g>
<defs>
<clipPath id="clip0_138_133">
<rect fill="white" height="89.4789" width="546.346"></rect>
</clipPath>
</defs>
</svg>
